<mxfile host="app.diagrams.net" agent="Mozilla/5.0 (Macintosh; Intel Mac OS X 10_15_7) AppleWebKit/537.36 (KHTML, like Gecko) Chrome/129.0.0.0 Safari/537.36" version="24.7.17">
  <diagram name="第 1 页" id="Mkcc9OeNk5iVCjmdpWlY">
    <mxGraphModel dx="1026" dy="650" grid="1" gridSize="10" guides="1" tooltips="1" connect="1" arrows="1" fold="1" page="1" pageScale="1" pageWidth="827" pageHeight="1169" math="0" shadow="0">
      <root>
        <mxCell id="0" />
        <mxCell id="1" parent="0" />
        <mxCell id="qvE2WyuZB9-FuXuh6IxU-3" value="" style="edgeStyle=orthogonalEdgeStyle;rounded=0;orthogonalLoop=1;jettySize=auto;html=1;" edge="1" parent="1" source="qvE2WyuZB9-FuXuh6IxU-1" target="qvE2WyuZB9-FuXuh6IxU-2">
          <mxGeometry relative="1" as="geometry" />
        </mxCell>
        <mxCell id="qvE2WyuZB9-FuXuh6IxU-1" value="修改记录查询" style="ellipse;whiteSpace=wrap;html=1;" vertex="1" parent="1">
          <mxGeometry x="280" y="110" width="110" height="60" as="geometry" />
        </mxCell>
        <mxCell id="qvE2WyuZB9-FuXuh6IxU-5" value="" style="edgeStyle=orthogonalEdgeStyle;rounded=0;orthogonalLoop=1;jettySize=auto;html=1;" edge="1" parent="1" source="qvE2WyuZB9-FuXuh6IxU-2" target="qvE2WyuZB9-FuXuh6IxU-4">
          <mxGeometry relative="1" as="geometry" />
        </mxCell>
        <mxCell id="qvE2WyuZB9-FuXuh6IxU-6" value="不存在" style="edgeLabel;html=1;align=center;verticalAlign=middle;resizable=0;points=[];" vertex="1" connectable="0" parent="qvE2WyuZB9-FuXuh6IxU-5">
          <mxGeometry x="-0.1317" y="3" relative="1" as="geometry">
            <mxPoint x="1" as="offset" />
          </mxGeometry>
        </mxCell>
        <mxCell id="qvE2WyuZB9-FuXuh6IxU-8" value="" style="edgeStyle=orthogonalEdgeStyle;rounded=0;orthogonalLoop=1;jettySize=auto;html=1;" edge="1" parent="1" source="qvE2WyuZB9-FuXuh6IxU-2" target="qvE2WyuZB9-FuXuh6IxU-7">
          <mxGeometry relative="1" as="geometry" />
        </mxCell>
        <mxCell id="qvE2WyuZB9-FuXuh6IxU-2" value="根据标签name和&lt;div&gt;标签id校验标签存在&lt;/div&gt;" style="rhombus;whiteSpace=wrap;html=1;" vertex="1" parent="1">
          <mxGeometry x="252.5" y="230" width="165" height="70" as="geometry" />
        </mxCell>
        <mxCell id="qvE2WyuZB9-FuXuh6IxU-4" value="返回标签不存在" style="whiteSpace=wrap;html=1;" vertex="1" parent="1">
          <mxGeometry x="30" y="235" width="120" height="60" as="geometry" />
        </mxCell>
        <mxCell id="qvE2WyuZB9-FuXuh6IxU-10" value="" style="edgeStyle=orthogonalEdgeStyle;rounded=0;orthogonalLoop=1;jettySize=auto;html=1;" edge="1" parent="1" source="qvE2WyuZB9-FuXuh6IxU-7" target="qvE2WyuZB9-FuXuh6IxU-9">
          <mxGeometry relative="1" as="geometry" />
        </mxCell>
        <mxCell id="qvE2WyuZB9-FuXuh6IxU-7" value="mysql查询相关修改记录" style="shape=process;whiteSpace=wrap;html=1;backgroundOutline=1;" vertex="1" parent="1">
          <mxGeometry x="275" y="385" width="120" height="60" as="geometry" />
        </mxCell>
        <mxCell id="qvE2WyuZB9-FuXuh6IxU-9" value="封装返回数据" style="whiteSpace=wrap;html=1;" vertex="1" parent="1">
          <mxGeometry x="275" y="525" width="120" height="60" as="geometry" />
        </mxCell>
      </root>
    </mxGraphModel>
  </diagram>
</mxfile>
